<svg xmlns="http://www.w3.org/2000/svg" xmlns:xlink="http://www.w3.org/1999/xlink" width="2000" zoomAndPan="magnify" viewBox="0 0 1500 1499.999933" height="2000" preserveAspectRatio="xMidYMid meet" version="1.0"><defs><g/><clipPath id="975105afa6"><rect x="0" width="585" y="0" height="378"/></clipPath></defs><g transform="matrix(1, 0, 0, 1, 431, 574)"><g clip-path="url(#975105afa6)"><g fill="#7a0000" fill-opacity="1"><g transform="translate(0.274576, 292.724092)"><g><path d="M 97.5625 3.578125 C 83.75 3.578125 70.347656 0.300781 57.359375 -6.25 C 44.378906 -12.800781 33.71875 -22.628906 25.375 -35.734375 C 17.03125 -48.835938 12.859375 -64.921875 12.859375 -83.984375 C 12.859375 -102.804688 17.328125 -119.546875 26.265625 -134.203125 C 35.203125 -148.859375 47.054688 -160.351562 61.828125 -168.6875 C 76.597656 -177.03125 92.679688 -181.203125 110.078125 -181.203125 C 121.515625 -181.203125 131.816406 -180.25 140.984375 -178.34375 C 150.160156 -176.4375 157.425781 -174.050781 162.78125 -171.1875 C 168.144531 -168.332031 170.828125 -165.234375 170.828125 -161.890625 C 170.828125 -157.847656 168.503906 -153.617188 163.859375 -149.203125 C 159.210938 -144.796875 154.03125 -142.59375 148.3125 -142.59375 C 139.976562 -142.59375 121.875 -153.554688 94 -175.484375 C 77.3125 -172.617188 63.84375 -164.394531 53.59375 -150.8125 C 43.351562 -137.238281 38.234375 -120.800781 38.234375 -101.5 C 38.234375 -85.300781 41.390625 -70.945312 47.703125 -58.4375 C 54.023438 -45.925781 62.960938 -36.210938 74.515625 -29.296875 C 86.066406 -22.390625 99.585938 -18.9375 115.078125 -18.9375 C 128.898438 -18.9375 140.929688 -21.796875 151.171875 -27.515625 C 161.421875 -33.234375 170.597656 -40.738281 178.703125 -50.03125 L 181.90625 -46.8125 C 175.957031 -38.476562 168.8125 -30.4375 160.46875 -22.6875 C 152.125 -14.945312 142.769531 -8.632812 132.40625 -3.75 C 122.039062 1.132812 110.425781 3.578125 97.5625 3.578125 Z M 97.5625 3.578125 "/></g></g></g><g fill="#7a0000" fill-opacity="1"><g transform="translate(182.182963, 292.724092)"><g><path d="M 9.65625 0 L 9.65625 -4.640625 C 15.132812 -6.304688 18.882812 -9.878906 20.90625 -15.359375 C 22.925781 -20.847656 23.9375 -30.859375 23.9375 -45.390625 L 23.9375 -234.8125 C 23.9375 -243.144531 23.398438 -249.394531 22.328125 -253.5625 C 21.265625 -257.738281 19.71875 -260.78125 17.6875 -262.6875 C 15.664062 -264.59375 12.988281 -266.257812 9.65625 -267.6875 L 9.65625 -271.609375 L 48.609375 -288.765625 L 51.828125 -286.265625 L 51.828125 -148.3125 C 62.304688 -156.65625 74.097656 -164.222656 87.203125 -171.015625 C 100.304688 -177.804688 113.769531 -181.203125 127.59375 -181.203125 C 145.21875 -181.203125 159.035156 -176.078125 169.046875 -165.828125 C 179.054688 -155.585938 184.0625 -139.984375 184.0625 -119.015625 L 184.0625 -45.390625 C 184.0625 -30.859375 185.070312 -20.847656 187.09375 -15.359375 C 189.113281 -9.878906 192.867188 -6.304688 198.359375 -4.640625 L 198.359375 0 L 141.890625 0 L 141.890625 -4.640625 C 147.367188 -6.304688 151.117188 -9.878906 153.140625 -15.359375 C 155.171875 -20.847656 156.1875 -30.859375 156.1875 -45.390625 L 156.1875 -111.859375 C 156.1875 -130.441406 152.253906 -144.675781 144.390625 -154.5625 C 136.523438 -164.457031 124.726562 -169.40625 109 -169.40625 C 99.226562 -169.40625 89.519531 -166.84375 79.875 -161.71875 C 70.226562 -156.59375 60.878906 -150.21875 51.828125 -142.59375 L 51.828125 -45.390625 C 51.828125 -30.859375 52.835938 -20.847656 54.859375 -15.359375 C 56.878906 -9.878906 60.632812 -6.304688 66.125 -4.640625 L 66.125 0 Z M 9.65625 0 "/></g></g></g><g fill="#7a0000" fill-opacity="1"><g transform="translate(389.108332, 292.724092)"><g><path d="M 97.5625 3.578125 C 87.800781 3.578125 77.914062 1.789062 67.90625 -1.78125 C 57.894531 -5.351562 48.71875 -10.773438 40.375 -18.046875 C 32.039062 -25.316406 25.367188 -34.429688 20.359375 -45.390625 C 15.359375 -56.347656 12.859375 -69.210938 12.859375 -83.984375 C 12.859375 -103.523438 17.207031 -120.5625 25.90625 -135.09375 C 34.601562 -149.625 46.097656 -160.941406 60.390625 -169.046875 C 74.691406 -177.148438 90.179688 -181.203125 106.859375 -181.203125 C 121.867188 -181.203125 134.675781 -178.28125 145.28125 -172.4375 C 155.882812 -166.601562 164.101562 -158.921875 169.9375 -149.390625 C 175.78125 -139.859375 178.816406 -129.375 179.046875 -117.9375 L 39.3125 -117.9375 C 38.59375 -112.695312 38.234375 -107.21875 38.234375 -101.5 C 38.234375 -85.300781 41.390625 -70.945312 47.703125 -58.4375 C 54.023438 -45.925781 62.960938 -36.210938 74.515625 -29.296875 C 86.066406 -22.390625 99.585938 -18.9375 115.078125 -18.9375 C 128.898438 -18.9375 140.929688 -21.796875 151.171875 -27.515625 C 161.421875 -33.234375 170.597656 -40.738281 178.703125 -50.03125 L 181.90625 -46.8125 C 175.957031 -38.476562 168.8125 -30.4375 160.46875 -22.6875 C 152.125 -14.945312 142.769531 -8.632812 132.40625 -3.75 C 122.039062 1.132812 110.425781 3.578125 97.5625 3.578125 Z M 40.390625 -122.578125 L 150.46875 -122.578125 C 149.269531 -130.679688 146.347656 -138.722656 141.703125 -146.703125 C 137.054688 -154.691406 130.859375 -161.363281 123.109375 -166.71875 C 115.367188 -172.082031 106.019531 -174.765625 95.0625 -174.765625 C 79.8125 -175.003906 67.597656 -170.117188 58.421875 -160.109375 C 49.253906 -150.097656 43.242188 -137.585938 40.390625 -122.578125 Z M 40.390625 -122.578125 "/></g></g></g></g></g><g fill="#7a0000" fill-opacity="1"><g transform="translate(711.101228, 594.973438)"><g><path d="M -15.234375 51.703125 L -15.234375 42.984375 L 290.0625 42.984375 L 290.0625 51.703125 Z M -15.234375 51.703125 "/></g></g></g></svg>